# xmcd CD database file
#
# Track frame offsets:
#	150
#	9967
#	27819
#	61673
#	78510
#	97898
#	111306
#	143084
#	164991
#	190793
#
# Disc length: 2733 seconds
#
# Revision: 0
# Processed by: cddbd v1.4PL0 Copyright (c) Steve Scherf et al.
# Submitted via: CDex 1.40Beta9
#
DISCID=770aab0a
DTITLE=Danilo B. Jemael e Edu Amaral - Um Blues para Danilo
DYEAR=2001
DGENRE=Blues
TTITLE0=Caribe
TTITLE1=Thaiti
TTITLE2=Pensando em Você
TTITLE3=Colombina
TTITLE4=Sentidos
TTITLE5=Um Blues para Danilo
TTITLE6=Samba de Verão
TTITLE7=Açaí
TTITLE8=Novos Ares
TTITLE9=Viagens
EXTD=YEAR: 2001 ID3G: 0
EXTT0=
EXTT1=
EXTT2=
EXTT3=
EXTT4=
EXTT5=
EXTT6=
EXTT7=
EXTT8=
EXTT9=
PLAYORDER=
